<?xml version="1.0" encoding="UTF-8"?>
<svg id="LogoDesigns" xmlns="http://www.w3.org/2000/svg" viewBox="0 0 200 200">
  <defs>
    <style>
      .cls-1 {
        fill: #dc5c46;
      }

      .cls-2 {
        fill: #ebebe8;
      }
    </style>
  </defs>
  <path class="cls-1" d="M0,100c0,67.72,37.6,100,100,100,62.4,0,100-32.28,100-100S162.4,0,100,0C37.6,0,0,32.28,0,100Z"/>
  <path class="cls-2" d="M88.01,113.2l-1.53-3.93c-2.96-7.62.04-14.22.05-14.26l13.47,34.65,6.35-16.34s-6.35-13.14-6.35-13.14c0,0-2.4,4.74-3.58,7.2l-.62-1.59c-2.34-6.02,1.28-11.33,1.28-11.33-5.28-9.64-7-27.52-7-27.53l-.76,3.05c-6.62,26.64-15.04,40.28-15.4,40.89-.57-5.87-.28-10.42.83-13.21.55-1.26,3.05-7.63,3.62-9.25l-7.9-20.35.39,3.71c1.06,10.09.83,32.95-12.48,72.77h-5.51c1.32-3.98,5.11-16.38,5.11-16.37,0,0-5.65,3.16-11.83,3.16-5.86,0-10.2-1.87-12.89-5.56-4.71-6.44-4.59-18.61.34-34.31h5.46c-4.99,15.12-5.6,25.46-1.81,30.73,2.82,3.92,7.39,3.92,8.89,3.92,8.01,0,13.99-5.97,13.99-5.97,0,0,4.47-17.8,5.32-29.36,2.25-30.74-5.92-51.44-7.67-55.47h5.69c2.06,5.26,17.47,45.33,17.47,45.33,5.91-19.72,9.19-41.47,9.7-45.33h5.28c-4.27,32.82,4.07,52.85,4.08,52.86,0,0,8.32-20.26,4.08-52.86h5.27c.75,6.36,5.85,33.53,9.73,45.27,0,0,15.04-39.1,17.45-45.27h5.69c-1.75,4.03-9.92,24.73-7.68,55.47.53,7.25,1.74,13.07,1.96,14.32-2.73-.73-5.79-3.63-6.65-8.72-.82-4.83-1.54-18.05-1-24.49.08-.93.39-3.83.39-3.83l-7.61,20.34c2.06,6.24,13.43,37.72,32.22,37.72,4,0,7-1.34,8.91-3.99,3.77-5.24,3.16-15.55-1.82-30.66h5.47c4.9,15.4,5.02,27.9.35,34.29-2.7,3.7-7.04,5.57-12.91,5.57-6.61,0-11.82-3.15-11.82-3.15,0,0,3.5,11.51,5.1,16.37h-5.51c-2.07-6.28-6.45-21.67-6.45-21.67-8.99-8.34-16.38-27.18-16.38-27.18l-4.37,11.24c-1.77-4.63-1.77-9.84.03-14.48l1.62-4.16c-1.11-2.84-4.46-14.61-5.47-18.67l-.72-2.89s-.97,15.71-6.95,27.71c0,0,3.35,6.14,7.61,15.49,3.97,8.71,7.53,17.57,7.53,30.25,0,10.17-5.61,24.49-18.08,24.49-11.16,0-18.07-12.71-18.07-24.49,0-8.78,2.26-18.35,6.08-27ZM87.14,140.2c0,9.27,4.92,19.27,12.86,19.27s12.86-10,12.86-19.27-2.26-15.92-3.11-18.36l-7.96,17.63h-3.58c-.57-1.5-7.43-19.16-7.43-19.16,0,0-3.63,7.99-3.63,19.88Z"/>
</svg>